<svg viewBox="0 0 1440 320" xmlns="http://www.w3.org/2000/svg">
  <path fill="#007BFF" fill-opacity="1"
    d="M0,64L30,58.7C60,53,120,43,180,69.3C240,96,300,160,360,192C420,224,480,224,540,202.7C600,181,660,139,720,122.7C780,107,840,117,900,128C960,139,1020,149,1080,149.3C1140,149,1200,139,1260,117.3C1320,96,1380,64,1410,48L1440,32L1440,320L1410,320C1380,320,1320,320,1260,320C1200,320,1140,320,1080,320C1020,320,960,320,900,320C840,320,780,320,720,320C660,320,600,320,540,320C480,320,420,320,360,320C300,320,240,320,180,320C120,320,60,320,30,320L0,320Z">
  </path>
</svg>