<svg xmlns="http://www.w3.org/2000/svg" viewBox="0 0 1440 320"><path fill="#0099ff" fill-opacity="0.9" d="M0,320L21.8,293.3C43.6,267,87,213,131,170.7C174.5,128,218,96,262,117.3C305.5,139,349,213,393,240C436.4,267,480,245,524,208C567.3,171,611,117,655,122.7C698.2,128,742,192,785,213.3C829.1,235,873,213,916,186.7C960,160,1004,128,1047,128C1090.9,128,1135,160,1178,165.3C1221.8,171,1265,149,1309,165.3C1352.7,181,1396,235,1418,261.3L1440,288L1440,0L1418.2,0C1396.4,0,1353,0,1309,0C1265.5,0,1222,0,1178,0C1134.5,0,1091,0,1047,0C1003.6,0,960,0,916,0C872.7,0,829,0,785,0C741.8,0,698,0,655,0C610.9,0,567,0,524,0C480,0,436,0,393,0C349.1,0,305,0,262,0C218.2,0,175,0,131,0C87.3,0,44,0,22,0L0,0Z"></path></svg>